<svg xmlns="http://www.w3.org/2000/svg" width="1000.000000" height="1000.000000" preserveAspectRatio="xMidYMid meet"><rect id="backgroundrect" width="100%" height="100%" x="0" y="0" fill="none" stroke="none"></rect><metadata>Created by potrace 1.16, written by Peter Selinger 2001-2019</metadata><g class="currentLayer" style=""><title>Layer 1</title><g transform="translate(0,1000) scale(0.10000000149011612,-0.10000000149011612) " fill="#030455" stroke="none" id="svg_1" class="selected" fill-opacity="1"><path d="M1350 5825 l0 -3675 1605 0 c883 0 1605 4 1605 8 0 5 -14 48 -30 98 -61 180 -74 267 -74 499 0 247 4 272 139 800 148 579 180 778 172 1060 -8 270 -57 466 -177 710 -137 279 -303 490 -678 864 -285 284 -290 290 -215 291 47 0 323 -72 439 -115 324 -120 537 -266 764 -524 90 -102 116 -127 122 -113 4 9 28 71 54 137 78 199 284 593 430 822 31 49 74 76 91 59 4 -3 -12 -66 -35 -139 -90 -285 -189 -668 -257 -987 l-35 -165 38 -33 c118 -103 285 -194 427 -233 44 -11 81 -23 83 -24 2 -2 -20 -32 -48 -67 -191 -237 -294 -572 -316 -1028 -7 -161 10 -440 37 -600 58 -339 212 -770 418 -1165 l78 -150 1361 -3 1362 -2 0 3675 0 3675 -3680 0 -3680 0 0 -3675z m3439 2938 c45 -54 106 -177 127 -253 13 -47 18 -100 17 -190 0 -106 -4 -139 -27 -215 -52 -173 -132 -309 -281 -478 -82 -93 -106 -111 -133 -102 -21 6 -143 252 -167 334 -28 102 -18 192 45 381 63 187 158 353 283 494 70 79 91 83 136 29z m-2481 -401 c120 -122 188 -172 447 -327 351 -211 453 -310 522 -506 26 -77 51 -234 40 -262 -9 -24 -62 -22 -182 7 -199 49 -378 124 -527 222 -100 66 -245 212 -297 300 -84 143 -148 381 -151 564 -2 101 -2 98 18 103 9 3 18 5 20 6 1 0 51 -48 110 -107z m1129 -132 c26 -17 100 -47 163 -66 293 -90 344 -130 405 -314 49 -147 49 -304 1 -401 -34 -66 -85 -129 -106 -129 -9 0 -47 19 -83 43 -37 23 -103 62 -148 87 -110 60 -161 112 -209 213 -49 101 -73 195 -105 406 -25 172 -24 191 16 191 10 0 40 -14 66 -30z m1917 -127 c139 -221 156 -510 50 -815 -69 -197 -165 -379 -350 -660 -122 -186 -124 -187 -201 -105 -68 72 -105 129 -163 249 -82 170 -103 257 -104 423 -1 128 1 147 27 220 55 161 147 281 352 458 77 67 178 159 225 204 53 52 93 83 107 83 15 0 31 -16 57 -57z m906 -554 c112 -14 323 -63 327 -76 2 -5 -14 -21 -34 -35 -21 -14 -99 -83 -173 -153 -206 -195 -282 -237 -466 -256 -116 -13 -394 -3 -394 13 0 20 150 236 209 300 128 139 266 211 416 217 17 0 68 -4 115 -10z m-1886 -182 c35 -35 96 -151 130 -246 26 -75 30 -99 29 -191 0 -114 -18 -180 -70 -269 -35 -60 -101 -131 -123 -131 -24 0 -103 55 -141 98 -79 90 -136 276 -124 405 11 117 60 231 127 293 69 66 132 81 172 41z m-751 -203 c112 -16 153 -31 207 -74 82 -65 144 -210 156 -364 l7 -84 -44 -7 c-61 -9 -211 12 -294 40 -180 63 -332 224 -400 425 -14 40 -25 75 -25 76 0 17 252 10 393 -12z m-839 -34 c232 -59 345 -198 467 -574 51 -155 57 -182 45 -194 -12 -12 -35 -11 -167 7 -393 54 -478 111 -617 418 -73 161 -103 214 -155 270 -35 38 -38 46 -26 58 37 38 328 47 453 15z m4542 -493 c4 -4 -19 -36 -53 -70 -33 -34 -107 -120 -164 -192 -223 -281 -322 -357 -534 -413 -117 -31 -238 -50 -433 -67 -267 -25 -359 -55 -463 -152 -45 -42 -89 -57 -89 -30 0 23 67 259 94 330 85 223 207 378 362 459 127 67 345 119 575 138 128 10 694 8 705 -3z m-3895 -413 c85 -25 148 -62 211 -122 60 -57 118 -135 118 -159 0 -20 -59 -70 -120 -100 -49 -25 -66 -28 -155 -28 -91 0 -106 3 -165 31 -94 45 -178 112 -277 222 l-87 96 54 24 c30 13 79 29 110 37 79 19 244 19 311 -1z m-1054 -213 c108 -66 274 -126 601 -216 246 -68 350 -104 464 -160 94 -47 220 -130 258 -170 13 -14 29 -25 37 -25 17 0 17 -24 1 -37 -40 -31 -350 -150 -481 -185 -120 -32 -325 -32 -417 0 -181 63 -321 199 -425 415 -56 117 -156 379 -151 393 9 23 63 16 113 -15z m4498 -491 c49 -6 94 -15 100 -21 25 -25 -246 -219 -376 -269 -136 -52 -201 -64 -349 -64 -106 0 -155 5 -227 23 -51 12 -95 26 -98 31 -6 10 46 81 98 132 106 103 218 151 432 182 46 7 319 -3 420 -14z m-2740 -516 c-1 -208 -3 -236 -23 -309 -13 -43 -37 -106 -55 -140 -45 -85 -173 -215 -288 -291 -108 -72 -504 -277 -522 -271 -7 2 -11 13 -10 23 8 59 35 288 48 409 30 258 88 376 253 507 40 31 105 77 145 100 89 52 428 209 442 205 6 -3 10 -89 10 -233z m2978 37 c23 -11 72 -54 109 -94 75 -84 115 -107 183 -107 40 0 46 -3 43 -19 -3 -21 -190 -172 -252 -203 -86 -44 -242 -29 -379 37 -57 26 -309 243 -315 270 -7 32 175 107 318 130 111 19 239 12 293 -14z m-2591 -336 c-2 -27 6 -115 17 -195 25 -173 26 -208 5 -308 -43 -215 -182 -386 -399 -492 -109 -53 -251 -98 -266 -83 -6 6 11 88 41 204 126 482 215 648 462 854 70 59 96 75 117 73 25 -3 26 -5 23 -53z m1878 -5 c41 -11 125 -45 185 -75 128 -62 400 -230 400 -246 0 -6 -40 -33 -90 -59 -49 -26 -124 -68 -165 -95 -106 -68 -215 -121 -281 -135 -133 -29 -276 -1 -417 81 -106 63 -371 355 -376 416 -1 19 204 91 349 123 117 26 285 22 395 -10z m-550 -701 c80 -22 186 -72 256 -120 56 -38 158 -133 186 -171 27 -39 14 -48 -68 -48 -33 0 -109 -9 -169 -20 -213 -39 -284 -19 -336 96 -27 60 -68 261 -55 274 16 16 106 11 186 -11z" id="svg_2" fill="#030455"></path><path d="M1400 1574 c-45 -20 -68 -41 -91 -86 -16 -32 -19 -60 -19 -204 0 -193 12 -235 78 -276 37 -23 41 -23 445 -28 390 -5 409 -6 423 -24 10 -15 14 -54 14 -156 0 -120 -2 -139 -18 -153 -17 -15 -59 -17 -399 -17 -355 0 -381 1 -396 18 -10 10 -17 33 -17 50 l0 32 -65 0 -65 0 0 -47 c0 -57 30 -122 70 -151 51 -38 119 -43 513 -40 426 3 425 3 479 87 l29 46 -3 186 -3 186 -29 37 c-57 75 -61 76 -502 76 -366 0 -392 1 -407 18 -14 15 -17 42 -17 155 0 124 2 139 20 157 19 19 33 20 395 20 362 0 376 -1 395 -20 11 -11 20 -33 20 -50 l0 -30 66 0 66 0 -4 59 c-5 72 -40 124 -102 152 -38 17 -71 19 -441 18 -334 0 -406 -2 -435 -15z" id="svg_3" fill="#030455"></path><path d="M2632 1569 c-26 -13 -55 -39 -70 -62 l-27 -41 -3 -390 c-2 -215 0 -410 3 -434 7 -48 49 -102 99 -130 28 -15 74 -17 441 -17 459 0 457 0 513 73 l27 35 3 421 c1 232 0 431 -3 443 -8 35 -56 84 -100 104 -37 17 -74 19 -440 19 -389 0 -401 -1 -443 -21z m836 -125 l22 -15 0 -384 c0 -335 -2 -386 -16 -399 -13 -14 -64 -16 -399 -16 l-384 0 -15 22 c-14 19 -16 74 -16 394 l0 373 26 20 c26 20 38 21 393 21 316 0 370 -2 389 -16z" id="svg_4" fill="#030455"></path><path d="M3780 1040 l0 -550 550 0 550 0 0 70 0 70 -485 0 -485 0 0 480 0 480 -65 0 -65 0 0 -550z" id="svg_5" fill="#030455"></path><path d="M4960 1040 l0 -550 65 0 65 0 0 550 0 550 -65 0 -65 0 0 -550z" id="svg_6" fill="#030455"></path><path d="M5290 1040 l0 -550 500 0 500 0 0 70 0 70 -435 0 -435 0 0 175 0 175 350 0 350 0 0 65 0 65 -350 0 -350 0 0 175 0 175 435 0 435 0 0 65 0 65 -500 0 -500 0 0 -550z" id="svg_7" fill="#030455"></path><path d="M6550 1574 c-45 -20 -68 -41 -91 -86 -18 -35 -19 -65 -19 -444 0 -393 1 -409 21 -451 15 -30 35 -52 67 -71 l47 -27 410 0 c469 0 463 -1 516 84 l29 45 0 228 0 228 -200 0 -200 0 0 -70 0 -70 135 0 135 0 0 -138 c0 -122 -2 -141 -18 -155 -17 -15 -59 -17 -399 -17 -355 0 -381 1 -396 18 -15 17 -17 59 -17 395 0 364 1 378 20 397 19 19 33 20 395 20 362 0 376 -1 395 -20 12 -12 20 -33 20 -55 l0 -35 66 0 66 0 -4 64 c-5 77 -38 128 -102 157 -38 17 -71 19 -441 18 -334 0 -406 -2 -435 -15z" id="svg_8" fill="#030455"></path><path d="M7690 1040 l0 -550 500 0 500 0 0 70 0 70 -435 0 -435 0 0 175 0 175 350 0 350 0 0 65 0 65 -350 0 -350 0 0 175 0 175 435 0 435 0 0 65 0 65 -500 0 -500 0 0 -550z" id="svg_9" fill="#030455"></path></g></g></svg>